# xmcd
# 
# Track frame offsets:
#     150
#     17350
#     32930
#     48720
#     70445
#     88412
#     111240
#     131985
#     153185
#     173375
#     190122
#     212722
#     227397
#     251617
# 
# Disc length: 3672
# 
# Revision: 9
# Processed by: cddbd v1.5.2PL0 Copyright (c) Steve Scherf et al.
# Submitted via: fre:ac v1.0.17
# 
DISCID=bd0e560e
DTITLE=Kato Miliyah 加藤ミリヤ - Rose (Vol. 1)
DYEAR=2005
DGENRE=J-R&B
TTITLE0=夜空
TTITLE1=ディア　ロンリーガール
TTITLE2=Don't stop!
TTITLE3=Beautiful
TTITLE4=My life
TTITLE5=Love me, i love you
TTITLE6=RIDE wit U
TTITLE7=永遠の声
TTITLE8=Never let go
TTITLE9=I Cry
TTITLE10=ジョウネツ
TTITLE11=ROSE
TTITLE12=STAR
TTITLE13=ONE DAY ～夜空 Remix～ 加藤 ミリヤ loves m-flo (Bonus Track)
EXTD=
EXTT0=
EXTT1=
EXTT2=
EXTT3=
EXTT4=
EXTT5=
EXTT6=
EXTT7=
EXTT8=
EXTT9=
EXTT10=
EXTT11=
EXTT12=
EXTT13=
PLAYORDER=
